<?xml version="1.0" encoding="UTF-8"?>
<!DOCTYPE svg PUBLIC "-//W3C//DTD SVG 1.1//EN" "http://www.w3.org/Graphics/SVG/1.1/DTD/svg11.dtd">
<!-- Creator: CorelDRAW X8 -->
<svg xmlns="http://www.w3.org/2000/svg" xml:space="preserve" width="210mm" height="120mm" version="1.1"
     style="shape-rendering:geometricPrecision; text-rendering:geometricPrecision; image-rendering:optimizeQuality; fill-rule:evenodd; clip-rule:evenodd"
     viewBox="0 0 21000 12000"
>
 <defs>
  <style type="text/css">
   <![CDATA[
    .fil0 {fill:black}
   ]]>
  </style>
 </defs>
 <g id="Слой_x0020_1">
  <metadata id="CorelCorpID_0Corel-Layer"/>
  <g id="_3138637048096">
   <path class="fil0" d="M13115 3618l3 0 7 -18 2537 0c1511,0 2739,-62 3046,-136 1026,-296 1975,-1353 1989,-2240l0 -335 -6302 14c-450,4 -876,7 -1280,11l0 2704z"/>
   <path class="fil0" d="M14011 889l-3 0 -7 21 -2537 0c-1511,0 -2739,60 -3046,133 -1029,296 -1975,1354 -1989,2240l0 335 6302 -14c446,-4 876,-7 1280,-11l0 -2704z"/>
   <path class="fil0" d="M8687 1018c-517,185 -1316,852 -1539,1281 -98,185 -209,541 -258,803l-84 453 2090 0 2108 0c-370,869 -1672,3880 -2059,4222 -300,269 -467,332 -837,332 -824,0 -1180,-479 -1647,-2153 -503,-1860 -1050,-2697 -2990,-2425 -1368,195 -1874,185 -2635,-88 -359,-122 -652,-209 -652,-195 0,185 488,1406 614,1612 122,206 164,272 230,339 105,-18 182,-35 534,-91 352,-60 816,-157 1061,-237 -49,73 -332,289 -803,408l-593 146c583,461 701,482 2059,670 513,70 492,-227 1008,1448 789,2094 1957,3175 3608,3350 1486,157 3001,-988 4047,-3043l283 -579 1455 -35c1329,-49 1500,-73 2041,-394 691,-405 1193,-1110 1281,-1797l73 -506 -1856 0 -1850 0 185 -492 199 -492 2338 0c1392,0 2523,-63 2805,-136 949,-293 1822,-1354 1836,-2240l0 -331 -5810 10c-4246,0 -5932,52 -6242,160l0 0z"/>
   <path class="fil0" d="M11321 4546l-129 4c-1329,48 -1504,73 -2045,390 -687,409 -1193,1110 -1280,1797l-73 506 1859 0 1668 0 0 -2697z"/>
  </g>
 </g>
</svg>
